<?xml version="1.0" encoding="UTF-8"?><svg id="a" xmlns="http://www.w3.org/2000/svg" viewBox="0 0 500 500"><defs><style>.d{fill:#ff7d08;}.e{fill:#53605b;}</style></defs><path class="e" d="m457.69,374.48c-42.46,71.34-119.08,115.52-200.99,115.52-88.79,0-166.24-50.52-206.23-124.91,19.49,1.29,38.86-2.46,56.27-10.57,32.64,49.27,87.7,81.71,149.96,81.71s121.47-33.81,154.38-88.48l46.61,26.73Z"/><path class="e" d="m457.69,125.56l-46.61,26.73c-32.91-54.71-91.73-88.52-154.38-88.52s-117.36,32.4-149.92,81.71c-.2-.12-.35-.2-.55-.27-18.08-8.3-37.22-11.54-55.76-10.29C90.47,60.52,167.91,10,256.7,10c81.87,0,158.53,44.18,200.99,115.56Z"/><circle class="d" cx="58.12" cy="250" r="51.8"/></svg>